# Hierarchical Translation and Rotation (.htr) file
# Generated by EVaRT
[Header]
FileType htr
DataType HTRS
FileVersion 1
NumSegments 23
NumFrames 4
DataFrameRate 120
EulerRotationOrder ZYX
CalibrationUnits mm
RotationUnits Degrees
GlobalAxisofGravity Y
BoneLengthAxis Y
ScaleFactor 1
[SegmentNames&Hierarchy]
#CHILD            PARENT
DaveRoot          GLOBAL
Spine1            DaveRoot
Spine2            Spine1
Spine3            Spine2
Spine4            Spine3
Neck              Spine4
Head              Neck
LClavicle         Spine4
LUpperArm         LClavicle
LLowerArm         LUpperArm
LHand             LLowerArm
RClavicle         Spine4
RUpperArm         RClavicle
RLowerArm         RUpperArm
RHand             RLowerArm
RUpperLeg         DaveRoot
RLowerLeg         RUpperLeg
RFoot             RLowerLeg
RToes             RFoot
LUpperLeg         DaveRoot
LLowerLeg         LUpperLeg
LFoot             LLowerLeg
LToes             LFoot
[BasePosition]
#SegmentName      Tx   Ty   Tz   Rx   Ry   Rz   BoneLength
DaveRoot          30.502683	1014.050144	-392.030244	16.346492	-1.112010	-1.464339	100.000000
Spine1            0.000000	100.000000	0.000000	-16.708095	0.289044	-0.213389	100.000000
Spine2            0.000000	100.000000	0.000000	4.757952	0.249599	-0.116624	100.000000
Spine3            0.000000	100.000000	0.000000	11.084253	0.260929	-0.088411	100.000000
Spine4            0.000000	100.000000	0.000000	12.228282	1.332274	1.443083	100.000000
Neck              0.000000	100.000000	0.000000	10.147668	18.171820	1.381874	80.000000
Head              0.000000	80.000000	0.000000	-46.518491	-1.401195	-5.185409	200.000000
LClavicle         0.000000	100.000000	0.000000	-3.689620	-1.992124	-101.831237	200.000000
LUpperArm         0.000000	200.000000	0.000000	-0.284445	-3.207106	1.762499	300.000000
LLowerArm         0.000000	300.000000	0.000000	9.834184	2.175812	1.895763	200.000000
LHand             0.000000	200.000000	0.000000	-2.090742	-1.768569	8.793625	120.000000
RClavicle         0.000000	100.000000	0.000000	-0.558465	-3.870894	107.984856	200.000000
RUpperArm         0.000000	200.000000	0.000000	6.860362	-6.098052	-15.811317	300.000000
RLowerArm         0.000000	300.000000	0.000000	5.698581	-3.682026	-7.348670	200.000000
RHand             0.000000	200.000000	0.000000	-4.626921	6.468423	-3.971303	120.000000
RUpperLeg         -115.911102	-10.000000	31.058285	22.974686	25.481186	-170.503396	530.000000
RLowerLeg         0.000000	530.000000	0.000000	-7.725558	0.479387	-2.520024	460.000000
RFoot             0.000000	460.000000	0.000000	81.786251	-5.006629	-0.462861	130.000000
RToes             0.000000	130.000000	0.000000	20.181248	0.005479	-0.002881	100.000000
LUpperLeg         115.911102	-10.000000	31.058285	21.582405	10.065134	-177.228489	530.000000
LLowerLeg         0.000000	530.000000	0.000000	-4.243927	-3.275937	3.046484	460.000000
LFoot             0.000000	460.000000	0.000000	77.706358	-14.203819	16.055021	130.000000
LToes             0.000000	130.000000	0.000000	27.168776	-0.000000	-0.000086	100.000000
#Beginning of Data.
[DaveRoot]
#Fr	Tx	Ty	Tz	Rx	Ry	Rz	SF
617	-1103.966981	-34.781100	168.427713	4.979056	6.935261	-4.411391	1.000000	
618	-1105.171007	-34.965441	168.553675	4.776522	7.036759	-4.572958	1.000000	
619	-1106.473882	-35.090684	168.634692	4.608088	7.148136	-4.726566	1.000000	
620	-1107.817768	-35.199701	168.682424	4.467750	7.262375	-4.866279	1.000000	
[Spine1]
#Fr	Tx	Ty	Tz	Rx	Ry	Rz	SF
617	0.000000	0.000000	0.000000	2.125716	0.710851	-0.120658	1.000000	
618	0.000000	0.000000	0.000000	2.141915	0.695088	-0.103383	1.000000	
619	0.000000	0.000000	0.000000	2.151457	0.679029	-0.094211	1.000000	
620	0.000000	0.000000	0.000000	2.151041	0.663390	-0.092617	1.000000	
[Spine2]
#Fr	Tx	Ty	Tz	Rx	Ry	Rz	SF
617	0.000000	0.000000	0.000000	2.125716	0.710851	-0.120658	1.000000	
618	0.000000	0.000000	0.000000	2.141915	0.695088	-0.103383	1.000000	
619	0.000000	0.000000	0.000000	2.151457	0.679029	-0.094211	1.000000	
620	0.000000	0.000000	0.000000	2.151041	0.663390	-0.092617	1.000000	
[Spine3]
#Fr	Tx	Ty	Tz	Rx	Ry	Rz	SF
617	0.000000	0.000000	0.000000	2.125716	0.710851	-0.120658	1.000000	
618	0.000000	0.000000	0.000000	2.141915	0.695088	-0.103383	1.000000	
619	0.000000	0.000000	0.000000	2.151457	0.679029	-0.094211	1.000000	
620	0.000000	0.000000	0.000000	2.151041	0.663390	-0.092617	1.000000	
[Spine4]
#Fr	Tx	Ty	Tz	Rx	Ry	Rz	SF
617	0.000000	0.000000	0.000000	2.125716	0.710851	-0.120658	1.000000	
618	0.000000	0.000000	0.000000	2.141915	0.695088	-0.103383	1.000000	
619	0.000000	0.000000	0.000000	2.151457	0.679029	-0.094211	1.000000	
620	0.000000	0.000000	0.000000	2.151041	0.663390	-0.092617	1.000000	
[Neck]
#Fr	Tx	Ty	Tz	Rx	Ry	Rz	SF
617	0.000000	0.000000	0.000000	-5.397932	5.731821	-3.800679	1.000000	
618	0.000000	0.000000	0.000000	-5.414076	5.783584	-3.843955	1.000000	
619	0.000000	0.000000	0.000000	-5.426610	5.867568	-3.886981	1.000000	
620	0.000000	0.000000	0.000000	-5.414208	6.001656	-3.926928	1.000000	
[Head]
#Fr	Tx	Ty	Tz	Rx	Ry	Rz	SF
617	0.000000	0.000000	0.000000	-5.397932	5.731821	-3.800679	1.000000	
618	0.000000	0.000000	0.000000	-5.414076	5.783584	-3.843955	1.000000	
619	0.000000	0.000000	0.000000	-5.426610	5.867568	-3.886981	1.000000	
620	0.000000	0.000000	0.000000	-5.414208	6.001656	-3.926928	1.000000	
[LClavicle]
#Fr	Tx	Ty	Tz	Rx	Ry	Rz	SF
617	0.000000	0.000000	0.000000	14.031929	1.115180	-7.082394	1.000000	
618	0.000000	0.000000	0.000000	14.019829	1.135707	-7.168063	1.000000	
619	0.000000	0.000000	0.000000	13.934946	1.156235	-7.278901	1.000000	
620	0.000000	0.000000	0.000000	13.811285	1.172411	-7.387362	1.000000	
[LUpperArm]
#Fr	Tx	Ty	Tz	Rx	Ry	Rz	SF
617	0.000000	0.000000	0.000000	19.434748	0.637726	-46.347554	1.000000	
618	0.000000	0.000000	0.000000	19.516940	0.681079	-46.187382	1.000000	
619	0.000000	0.000000	0.000000	19.693506	0.741904	-45.987364	1.000000	
620	0.000000	0.000000	0.000000	19.902927	0.810874	-45.787042	1.000000	
[LLowerArm]
#Fr	Tx	Ty	Tz	Rx	Ry	Rz	SF
617	0.000000	0.000000	0.000000	34.513565	0.000000	0.000000	1.000000	
618	0.000000	0.000000	0.000000	34.270114	0.000000	0.000000	1.000000	
619	0.000000	0.000000	0.000000	33.991553	0.000000	0.000000	1.000000	
620	0.000000	0.000000	0.000000	33.686128	0.000000	0.000000	1.000000	
[LHand]
#Fr	Tx	Ty	Tz	Rx	Ry	Rz	SF
617	0.000000	0.000000	0.000000	10.165572	-0.000000	-0.000000	1.000000	
618	0.000000	0.000000	0.000000	10.112027	-0.000000	-0.000000	1.000000	
619	0.000000	0.000000	0.000000	10.028959	-0.000000	-0.000000	1.000000	
620	0.000000	0.000000	0.000000	9.964276	-0.000000	-0.000000	1.000000	
[RClavicle]
#Fr	Tx	Ty	Tz	Rx	Ry	Rz	SF
617	0.000000	0.000000	0.000000	8.146435	0.275062	-2.106856	1.000000	
618	0.000000	0.000000	0.000000	8.335168	0.285855	-2.136382	1.000000	
619	0.000000	0.000000	0.000000	8.538929	0.296693	-2.161302	1.000000	
620	0.000000	0.000000	0.000000	8.734486	0.305212	-2.171830	1.000000	
[RUpperArm]
#Fr	Tx	Ty	Tz	Rx	Ry	Rz	SF
617	0.000000	0.000000	0.000000	43.794582	37.012046	14.650191	1.000000	
618	0.000000	0.000000	0.000000	43.574042	36.876794	14.635868	1.000000	
619	0.000000	0.000000	0.000000	43.322584	36.703204	14.591616	1.000000	
620	0.000000	0.000000	0.000000	43.085268	36.466718	14.497789	1.000000	
[RLowerArm]
#Fr	Tx	Ty	Tz	Rx	Ry	Rz	SF
617	0.000000	0.000000	0.000000	41.923868	0.000000	0.000000	1.000000	
618	0.000000	0.000000	0.000000	41.846847	0.000000	0.000000	1.000000	
619	0.000000	0.000000	0.000000	41.744558	0.000000	0.000000	1.000000	
620	0.000000	0.000000	0.000000	41.585145	0.000000	0.000000	1.000000	
[RHand]
#Fr	Tx	Ty	Tz	Rx	Ry	Rz	SF
617	0.000000	0.000000	0.000000	17.830248	34.270692	4.624958	1.000000	
618	0.000000	0.000000	0.000000	17.898390	34.310367	4.811885	1.000000	
619	0.000000	0.000000	0.000000	18.009271	34.264723	4.912888	1.000000	
620	0.000000	0.000000	0.000000	18.102584	34.245634	4.908395	1.000000	
[RUpperLeg]
#Fr	Tx	Ty	Tz	Rx	Ry	Rz	SF
617	0.000000	0.000000	0.000000	12.201708	2.381904	3.260610	1.000000	
618	0.000000	0.000000	0.000000	11.917167	2.417160	3.294746	1.000000	
619	0.000000	0.000000	0.000000	11.669429	2.424113	3.349119	1.000000	
620	0.000000	0.000000	0.000000	11.465635	2.509412	3.433180	1.000000	
[RLowerLeg]
#Fr	Tx	Ty	Tz	Rx	Ry	Rz	SF
617	0.000000	0.000000	0.000000	-4.701954	-0.000000	0.000000	1.000000	
618	0.000000	0.000000	0.000000	-4.678640	-0.000000	0.000000	1.000000	
619	0.000000	0.000000	0.000000	-4.657534	0.000000	0.000000	1.000000	
620	0.000000	0.000000	0.000000	-4.652659	-0.000000	0.000000	1.000000	
[RFoot]
#Fr	Tx	Ty	Tz	Rx	Ry	Rz	SF
617	0.000000	0.000000	0.000000	-3.862051	9.648383	-18.881818	1.000000	
618	0.000000	0.000000	0.000000	-3.724359	9.991018	-18.859032	1.000000	
619	0.000000	0.000000	0.000000	-3.695650	9.879541	-18.943740	1.000000	
620	0.000000	0.000000	0.000000	-3.804777	9.059524	-19.073774	1.000000	
[RToes]
#Fr	Tx	Ty	Tz	Rx	Ry	Rz	SF
617	0.000000	0.000000	0.000000	-13.059404	-0.000000	0.000000	1.000000	
618	0.000000	0.000000	0.000000	-13.078779	-0.000000	0.000000	1.000000	
619	0.000000	0.000000	0.000000	-12.650273	0.000000	0.000000	1.000000	
620	0.000000	0.000000	0.000000	-11.623038	-0.000000	0.000000	1.000000	
[LUpperLeg]
#Fr	Tx	Ty	Tz	Rx	Ry	Rz	SF
617	0.000000	0.000000	0.000000	3.493830	12.562459	19.430706	1.000000	
618	0.000000	0.000000	0.000000	3.425742	12.609857	19.561904	1.000000	
619	0.000000	0.000000	0.000000	3.423394	12.497626	19.699411	1.000000	
620	0.000000	0.000000	0.000000	3.475007	12.229463	19.832704	1.000000	
[LLowerLeg]
#Fr	Tx	Ty	Tz	Rx	Ry	Rz	SF
617	0.000000	0.000000	0.000000	1.190792	-0.000000	-0.000000	1.000000	
618	0.000000	0.000000	0.000000	1.025606	-0.000000	-0.000000	1.000000	
619	0.000000	0.000000	0.000000	0.811475	-0.000000	-0.000000	1.000000	
620	0.000000	0.000000	0.000000	0.555651	-0.000000	-0.000000	1.000000	
[LFoot]
#Fr	Tx	Ty	Tz	Rx	Ry	Rz	SF
617	0.000000	0.000000	0.000000	-18.575005	-22.088735	27.602848	1.000000	
618	0.000000	0.000000	0.000000	-18.517623	-22.167027	27.424902	1.000000	
619	0.000000	0.000000	0.000000	-18.389917	-22.446515	27.117983	1.000000	
620	0.000000	0.000000	0.000000	-18.219583	-22.740431	26.658609	1.000000	
[LToes]
#Fr	Tx	Ty	Tz	Rx	Ry	Rz	SF
617	0.000000	0.000000	0.000000	-14.433516	0.000000	-0.000000	1.000000	
618	0.000000	0.000000	0.000000	-14.369023	0.000000	-0.000000	1.000000	
619	0.000000	0.000000	0.000000	-14.453606	0.000000	-0.000000	1.000000	
620	0.000000	0.000000	0.000000	-14.531108	0.000000	-0.000000	1.000000	
